<svg width="200" height="200" viewBox="0 0 200 200" fill="none" xmlns="http://www.w3.org/2000/svg">
<path d="M188 114.064C188 128.321 176.963 140 162.968 141.024L162.968 140.788L162.968 133.94L162.968 112.323V112.229V112.135V112.041V111.948V111.854V111.761V111.668V111.574V111.481V111.389V111.296V111.203V111.111V111.018V110.926V110.834V110.741V110.649V110.558V110.466V110.374V110.283V110.191V110.1V110.009V109.918V109.827V109.736V109.645V109.555V109.464V109.374V109.283V109.193V109.103V109.013V108.924V108.834V108.745V108.655V108.566V108.477V108.388V108.299V108.21V108.121V108.033V107.944V107.856V107.768V107.68V107.592V107.504V107.416V107.329V107.241V107.154V107.067V106.98V106.893V106.806V106.719V106.633V106.546V106.46V106.374V106.288V106.202V106.116V106.031V105.945V105.86V105.774V105.689V105.604V105.519V105.435V105.35V105.266V105.181V105.097V105.013V104.929V104.845V104.762V104.678V104.595V104.511V104.428V104.345V104.262V104.18V104.097V104.015V103.932V103.85V103.768V103.686V103.604V103.523V103.441V103.36V103.279V103.197V103.117V103.036V102.955V102.875V102.794V102.714V102.634V102.554V102.474V102.394V102.315V102.235V102.156V102.077V101.998V101.919V101.841V101.762V101.684V101.606V101.527V101.45V101.372V101.294V101.217V101.139V101.062V100.985V100.908V100.831V100.755V100.678V100.602V100.526V100.45V100.374V100.298V100.222V100.147V100.072V99.9966V99.9216V99.8468V99.7721V99.6976V99.6233V99.549V99.475V99.4011V99.3273V99.2537V99.1803V99.107V99.0339V98.9609V98.8881V98.8154V98.7429V98.6705V98.5983V98.5263V98.4544V98.3827V98.3111V98.2397V98.1684V98.0973V98.0264V97.9556V97.885V97.8146V97.7443V97.6741V97.6041V97.5343V97.4647V97.3952V97.3258V97.2567V97.1877V97.1188V97.0501V96.9816V96.9133V96.8451V96.7771V96.7092V96.6415V96.574V96.5066V96.4394V96.3724V96.3055V96.2388V96.1722V96.1059V96.0397V95.9736V95.9078V95.8421V95.7765V95.7112V95.646V95.581V95.5161V95.4514V95.3869V95.3226V95.2584V95.1944V95.1306V95.0669V95.0034V94.9401V94.877V94.814V94.7512V94.6886V94.6261V94.5638V94.5017V94.4398V94.3781V94.3165V94.2551V94.1939V94.1328V94.0719V94.0112V93.9507V93.8904V93.8302V93.7702V93.7104V93.6508V93.5913V93.5321V93.473V93.4141V93.3553V93.2968V93.2384V93.1802V93.1222V93.0643V93.0067V92.9492V92.8919V92.8348V92.7779V92.7212V92.6646V92.6082V92.552V92.496V92.4402V92.3846V92.3291V92.2739V92.2188V92.1639V92.1092V92.0547V92.0003V91.9462V91.8922V91.8384V91.7849V91.7315V91.6783V91.6252V91.5724V91.5198V91.4673V91.415V91.363V91.3111V91.2594V91.2079V91.1566V91.1055V91.0545V91.0038V90.9533V90.9029V90.8528V90.8028V90.753V90.7035V90.6541V90.6049V90.5559V90.5071V90.4585V90.4101V90.3619V90.3139V90.2661V90.2185V90.171V90.1238V90.0768V90.0299V89.9833V89.9369V89.8907V89.8446V89.7988V89.7531V89.7077V89.6625V89.6174V89.5726V89.528V89.4835V89.4393V89.3953V89.3515V89.3078V89.2644V89.2212V89.1782V89.1354V89.0928V89.0504V89.0082V88.9662V88.9244V88.8828V88.8415V88.8003V88.7593V88.7186V88.678V88.6377V88.5976V88.5576V88.5179V88.4784V88.4391V88.4V88.3611V88.3225V88.284V88.2457V88.2077V88.1699V88.1323V88.0948V88.0576V88.0207V87.9839V87.9473V87.911V87.8748V87.8389V87.8032V87.7677V87.7324V87.6974V87.6625V87.6279V87.5935V87.5593V87.5253V87.4915V87.4579V87.4246V87.3915V87.3586V87.3259V87.2934V87.2612V87.2291V87.1973V87.1657V87.1344V87.1051C176.963 88.1286 188 99.8077 188 114.064Z" stroke="#f4a8ff" stroke-width="4"/>
<rect x="120.323" y="56" width="29.0323" height="87.0968" fill="#f4a8ff"/>
<rect x="12" y="58" width="25.0323" height="83.0968" stroke="#f4a8ff" stroke-width="4"/>
<path d="M96.5162 99.5484C96.5162 123.599 77.0189 143.097 52.9678 143.097C52.9678 143.097 52.9678 123.599 52.9678 99.5484C52.9678 75.4973 52.9678 56 52.9678 56C77.0189 56 96.5162 75.4973 96.5162 99.5484Z" fill="#f4a8ff"/>
</svg>

